<svg width="53" height="11" viewBox="0 0 53 11" xmlns="http://www.w3.org/2000/svg" xmlns:xlink="http://www.w3.org/1999/xlink"><title>Artboard</title><defs><path d="M1.01 1.2a16.498 16.498 0 0 1 3.627 1.937l-.12.1c-.166.139-.328.281-.489.426a2.246 2.246 0 0 0-.18.165 2.178 2.178 0 0 0-.575 2.04A2.234 2.234 0 0 0 5.454 7.57c1.062 0 1.95-.727 2.181-1.702a2.177 2.177 0 0 0-.556-2.02 2.249 2.249 0 0 0-.216-.197 17.577 17.577 0 0 0-.593-.512A16.506 16.506 0 0 1 9.9 1.203v5.376h.002v.005c0 .197-.023.39-.065.579-.087.391-.26.76-.503 1.093-.761 1.045-2.213 1.751-3.88 1.751-1.667 0-3.119-.706-3.88-1.751A2.933 2.933 0 0 1 1.07 7.16a2.67 2.67 0 0 1-.062-.577V1.2zm3.568 3.31l.03-.027c.274-.252.556-.496.847-.73.3.241.59.492.87.753l.002.001a1.2 1.2 0 0 1 .361.858c0 .67-.552 1.214-1.234 1.214A1.224 1.224 0 0 1 4.22 5.365a1.2 1.2 0 0 1 .358-.854zm6.33-4.014a.5.5 0 0 0-.687-.46c-.005 0-.01.003-.015.004a17.496 17.496 0 0 0-4.754 2.462A17.501 17.501 0 0 0 .72.05.503.503 0 0 0 0 .496v6.088c0 .6.148 1.171.416 1.692.17.332.388.643.648.927.994 1.09 2.59 1.796 4.39 1.796 1.8 0 3.396-.707 4.39-1.795.26-.285.478-.595.648-.926a3.686 3.686 0 0 0 .416-1.694v-.005h.001V.496z" id="a"/><linearGradient x1="32.034%" y1="71.379%" x2="85.187%" y2="11.572%" id="b"><stop stop-color="#FFF" offset="0%"/><stop offset="100%"/></linearGradient></defs><g fill="none" fill-rule="evenodd"><path d="M16.99 1.67V.99h2.58V.28h.68v.71h1.62c.22 0 .39-.18.39-.4V.36h.68v.23c0 .59-.48 1.08-1.07 1.08h-1.62v.64h1.5c.59 0 1.07.47 1.07 1.07v2.74h-.68v-.55h-1.89v.52h-.68v-.52h-1.89v.55H17V3.38c0-.6.49-1.07 1.08-1.07h1.49v-.64h-2.58zm-3.07 1.8h1.04v5.97h.68V3.47h1.04v-.68h-1.04V.26h-.68v2.53h-1.04v.68zm2.98 3.89v-.68h4.82v-.39h.68v.39h.68v.68h-.68v1c0 .59-.47 1.06-1.07 1.06h-1.21v-.68h1.21c.22 0 .39-.17.39-.38v-1H16.9zm.38.9l.35-.59 1.7 1-.35.59-1.7-1zm4.47-5.27h-1.5v.62h1.89v-.23a.39.39 0 0 0-.39-.39zm-4.07.39v.23h1.89v-.62h-1.49a.4.4 0 0 0-.4.39zm2.57.91v.6h1.89v-.6h-1.89zm-2.57 0v.6h1.89v-.6h-1.89zm14.09 5.14h-3.2c-.69 0-1.26-.55-1.26-1.25V4.54c0-.69.57-1.26 1.26-1.26h3.2c.69 0 1.26.57 1.26 1.26v3.64c0 .7-.57 1.25-1.26 1.25zM26.31.73c-.18.32-.38.62-.6.9-.17-.42-.36-.84-.56-1.25l-.61.31c.25.5.48 1 .67 1.52-.38.39-.81.75-1.27 1.07l.38.57c.4-.28.78-.58 1.13-.92.21.68.35 1.37.4 2.06-.55.78-1.19 1.36-1.92 1.82l.37.57c.56-.36 1.08-.79 1.55-1.33a6.61 6.61 0 0 1-.96 3.03l.59.35a7.274 7.274 0 0 0 1.07-3.86c0-1.07-.21-2.16-.56-3.21.34-.39.64-.82.91-1.3l-.59-.33zm5.27-.39v.85h-2.83V.34h-.68v.85h-.79v.68h.79v.83h.68v-.83h2.83v.83h.68v-.83h.8v-.68h-.8V.34h-.68zm.19 8.41c.32 0 .58-.25.58-.57V6.67h-1.84v2.08h1.26zm-3.2 0h1.25V6.67h-1.83v1.51c0 .32.26.57.58.57zm3.2-4.79h-1.26v2.03h1.84V4.54a.58.58 0 0 0-.58-.58zm-3.78.58v1.45h1.83V3.96h-1.25a.58.58 0 0 0-.58.58zM37.2.33h.68v.91h1.32v.68h-2.1v1.55h.88c.59 0 1.06.49 1.06 1.08v3.77c0 .6-.47 1.07-1.06 1.07h-.57v-.68h.57c.21 0 .38-.18.38-.39V4.55c0-.22-.17-.4-.38-.4h-.89c-.05 1.88-.29 3.69-.71 5.29l-.66-.16c.46-1.78.7-3.82.7-5.92V1.92h-.52v-.68h1.3V.33zm2.28 5.71h1.74v2.24c0 .25-.2.46-.46.46h-.84v.68h.84c.63 0 1.14-.52 1.14-1.14V6.04h1.16v-.68h-.98c.37-.75.63-1.65.8-2.71h-3.24v.68h2.44c-.15.71-.4 1.38-.77 2.03h-1.83v.68zm.43-5.71l-.53 1.52h3.67v-.68h-2.72l.22-.62-.64-.22zm-4.67 5.64l.63.25-1.31 3.16-.62-.26 1.3-3.15zm-.55-2.71v1.9h.68v-1.9h-.68zm0-2.79v1.9h.68V.47h-.68zm13.52 2.18h1.49c.23 1.33.59 2.56 1.07 3.69-.66.64-1.44 1.23-2.35 1.78l.35.59c.87-.53 1.63-1.1 2.29-1.71.41.88.88 1.69 1.4 2.45l.57-.38c-.55-.8-1.04-1.66-1.45-2.58.55-.59 1.01-1.22 1.38-1.88l-.59-.34c-.29.53-.65 1.04-1.08 1.53-.38-.98-.69-2.03-.89-3.15h1.02c.69 0 1.26-.56 1.26-1.26V.78H52v.61c0 .32-.26.58-.58.58h-1.13c-.07-.52-.12-1.06-.14-1.62l-.68.03c.02.55.07 1.08.13 1.59h-1.39v.68zm-3.91-.06l1.67 3.23c-.49 1.05-1.14 2-2 2.95l.5.46c.78-.86 1.39-1.73 1.88-2.68l.9 1.73.61-.32-1.14-2.2c.56-1.33.92-2.83 1.17-4.66h-3.73v.68h2.94c-.18 1.21-.43 2.26-.78 3.21l-1.41-2.71-.61.31zM1.01 1.2a16.498 16.498 0 0 1 3.627 1.937l-.12.1c-.166.139-.328.281-.489.426a2.246 2.246 0 0 0-.18.165 2.178 2.178 0 0 0-.575 2.04A2.234 2.234 0 0 0 5.454 7.57c1.062 0 1.95-.727 2.181-1.702a2.177 2.177 0 0 0-.556-2.02 2.249 2.249 0 0 0-.216-.197 17.577 17.577 0 0 0-.593-.512A16.506 16.506 0 0 1 9.9 1.203v5.376h.002v.005c0 .197-.023.39-.065.579-.087.391-.26.76-.503 1.093-.761 1.045-2.213 1.751-3.88 1.751-1.667 0-3.119-.706-3.88-1.751A2.933 2.933 0 0 1 1.07 7.16a2.67 2.67 0 0 1-.062-.577V1.2zm3.568 3.31l.03-.027c.274-.252.556-.496.847-.73.3.241.59.492.87.753l.002.001a1.2 1.2 0 0 1 .361.858c0 .67-.552 1.214-1.234 1.214A1.224 1.224 0 0 1 4.22 5.365a1.2 1.2 0 0 1 .358-.854zm6.33-4.014a.5.5 0 0 0-.687-.46c-.005 0-.01.003-.015.004a17.496 17.496 0 0 0-4.754 2.462A17.501 17.501 0 0 0 .72.05.503.503 0 0 0 0 .496v6.088c0 .6.148 1.171.416 1.692.17.332.388.643.648.927.994 1.09 2.59 1.796 4.39 1.796 1.8 0 3.396-.707 4.39-1.795.26-.285.478-.595.648-.926a3.686 3.686 0 0 0 .416-1.694v-.005h.001V.496z" fill="#FFF"/><mask id="c" fill="#fff"><use xlink:href="#a"/></mask><path d="M4.636 3.137s.222.156.423.307c.201.15.397.308.397.308l-.94 2.19-1.903.03 1.022-2.576 1.001-.259z" fill-opacity=".46" fill="url(#b)" mask="url(#c)"/></g></svg>